<svg width="83" height="88" viewBox="0 0 83 88" fill="none" xmlns="http://www.w3.org/2000/svg">
<ellipse cx="41.402" cy="41.5448" rx="41.402" ry="41.4" fill="#FFD6BD"/>
<path fill-rule="evenodd" clip-rule="evenodd" d="M33.3321 30.9381C33.3321 28.8332 34.1824 26.8146 35.6959 25.3262C37.2095 23.8378 39.2622 23.0017 41.4027 23.0017C43.5431 23.0017 45.5959 23.8378 47.1095 25.3262C48.623 26.8146 49.4733 28.8332 49.4733 30.9381C49.4733 33.0429 48.623 35.0615 47.1095 36.5499C45.5959 38.0383 43.5431 38.8744 41.4027 38.8744C39.2622 38.8744 37.2095 38.0383 35.6959 36.5499C34.1824 35.0615 33.3321 33.0429 33.3321 30.9381ZM33.3321 42.8426C30.6566 42.8426 28.0906 43.8878 26.1987 45.7482C24.3068 47.6087 23.2439 50.132 23.2439 52.763C23.2439 54.3417 23.8816 55.8556 25.0168 56.9719C26.1519 58.0882 27.6915 58.7153 29.2968 58.7153H53.5086C55.1139 58.7153 56.6535 58.0882 57.7886 56.9719C58.9238 55.8556 59.5615 54.3417 59.5615 52.763C59.5615 50.132 58.4986 47.6087 56.6067 45.7482C54.7148 43.8878 52.1488 42.8426 49.4733 42.8426H33.3321Z" fill="#EC6608"/>
<ellipse cx="63.9193" cy="74.4288" rx="13.8007" ry="13.5712" fill="white"/>
<mask id="path-4-inside-1_56_143" fill="white">
<path d="M69.7394 69.3383C69.5123 69.1406 69.2425 68.9838 68.9456 68.8768C68.6487 68.7698 68.3305 68.7148 68.0091 68.7148C67.6877 68.7148 67.3695 68.7698 67.0726 68.8768C66.7756 68.9838 66.5059 69.1406 66.2788 69.3383L58.9298 75.7272C58.581 76.0309 58.3321 76.4104 58.2091 76.8261L57.3969 79.5742C57.3768 79.6425 57.3775 79.7143 57.399 79.7824C57.4205 79.8504 57.4621 79.9124 57.5196 79.9623C57.5771 80.0121 57.6485 80.048 57.7269 80.0665C57.8053 80.085 57.8878 80.0854 57.9664 80.0676L61.1265 79.3623C61.6048 79.2558 62.0414 79.0394 62.3905 78.7358L69.7394 72.3469C69.9668 72.1494 70.1472 71.9149 70.2703 71.6568C70.3933 71.3987 70.4567 71.122 70.4567 70.8426C70.4567 70.5632 70.3933 70.2865 70.2703 70.0284C70.1472 69.7703 69.9668 69.5358 69.7394 69.3383ZM66.9388 69.9121C67.2226 69.6653 67.6077 69.5267 68.0091 69.5267C68.4105 69.5267 68.7956 69.6653 69.0794 69.9121C69.3633 70.1589 69.5228 70.4936 69.5228 70.8426C69.5228 71.1916 69.3633 71.5263 69.0794 71.7731L68.3522 72.4053L66.2115 70.5443L66.9388 69.9121ZM65.5515 71.1181L67.6922 72.9791L61.7305 78.162C61.4994 78.3627 61.2105 78.5057 60.894 78.5759L58.4976 79.1116L59.1137 77.0282C59.1941 76.7529 59.3586 76.5016 59.5898 76.301L65.5515 71.1181Z"/>
</mask>
<path d="M69.7394 69.3383C69.5123 69.1406 69.2425 68.9838 68.9456 68.8768C68.6487 68.7698 68.3305 68.7148 68.0091 68.7148C67.6877 68.7148 67.3695 68.7698 67.0726 68.8768C66.7756 68.9838 66.5059 69.1406 66.2788 69.3383L58.9298 75.7272C58.581 76.0309 58.3321 76.4104 58.2091 76.8261L57.3969 79.5742C57.3768 79.6425 57.3775 79.7143 57.399 79.7824C57.4205 79.8504 57.4621 79.9124 57.5196 79.9623C57.5771 80.0121 57.6485 80.048 57.7269 80.0665C57.8053 80.085 57.8878 80.0854 57.9664 80.0676L61.1265 79.3623C61.6048 79.2558 62.0414 79.0394 62.3905 78.7358L69.7394 72.3469C69.9668 72.1494 70.1472 71.9149 70.2703 71.6568C70.3933 71.3987 70.4567 71.122 70.4567 70.8426C70.4567 70.5632 70.3933 70.2865 70.2703 70.0284C70.1472 69.7703 69.9668 69.5358 69.7394 69.3383ZM66.9388 69.9121C67.2226 69.6653 67.6077 69.5267 68.0091 69.5267C68.4105 69.5267 68.7956 69.6653 69.0794 69.9121C69.3633 70.1589 69.5228 70.4936 69.5228 70.8426C69.5228 71.1916 69.3633 71.5263 69.0794 71.7731L68.3522 72.4053L66.2115 70.5443L66.9388 69.9121ZM65.5515 71.1181L67.6922 72.9791L61.7305 78.162C61.4994 78.3627 61.2105 78.5057 60.894 78.5759L58.4976 79.1116L59.1137 77.0282C59.1941 76.7529 59.3586 76.5016 59.5898 76.301L65.5515 71.1181Z" fill="#929292"/>
<path d="M69.7394 69.3383L69.083 70.0927L69.0837 70.0933L69.7394 69.3383ZM66.2788 69.3383L66.9348 70.093L66.9352 70.0927L66.2788 69.3383ZM58.9298 75.7272L58.2737 74.9725L58.2731 74.973L58.9298 75.7272ZM58.2091 76.8261L57.2502 76.5424L57.2501 76.5427L58.2091 76.8261ZM57.3969 79.5742L56.4379 79.2907L56.4377 79.2916L57.3969 79.5742ZM57.9664 80.0676L57.7486 79.0916L57.7462 79.0922L57.9664 80.0676ZM61.1265 79.3623L60.909 78.3863L60.9086 78.3864L61.1265 79.3623ZM62.3905 78.7358L61.7344 77.9811L61.7343 77.9812L62.3905 78.7358ZM69.7394 72.3469L69.0837 71.5919L69.0834 71.5922L69.7394 72.3469ZM66.9388 69.9121L66.2827 69.1574V69.1574L66.9388 69.9121ZM68.0091 69.5267V68.5267V69.5267ZM69.5228 70.8426H70.5228H69.5228ZM69.0794 71.7731L68.4233 71.0184L69.0794 71.7731ZM68.3522 72.4053L67.6961 73.16L68.3522 73.7304L69.0083 73.16L68.3522 72.4053ZM66.2115 70.5443L65.5554 69.7896L64.6874 70.5443L65.5554 71.299L66.2115 70.5443ZM65.5515 71.1181L66.2076 70.3634L65.5515 69.7931L64.8954 70.3634L65.5515 71.1181ZM67.6922 72.9791L68.3482 73.7338L69.2163 72.9791L68.3483 72.2244L67.6922 72.9791ZM61.7305 78.162L62.3863 78.9169L62.3866 78.9167L61.7305 78.162ZM60.894 78.5759L60.6774 77.5997L60.6759 77.6L60.894 78.5759ZM58.4976 79.1116L57.5386 78.828L57.0565 80.4584L58.7157 80.0875L58.4976 79.1116ZM59.1137 77.0282L60.0727 77.3118L60.0737 77.3084L59.1137 77.0282ZM59.5898 76.301L60.2452 77.0563L60.2459 77.0557L59.5898 76.301ZM69.7394 69.3383L70.3959 68.5839C70.0709 68.3011 69.6923 68.0829 69.2847 67.936L68.9456 68.8768L68.6066 69.8176C68.7928 69.8847 68.9537 69.9801 69.083 70.0927L69.7394 69.3383ZM68.9456 68.8768L69.2847 67.936C68.877 67.7892 68.4439 67.7148 68.0091 67.7148V68.7148V69.7148C68.2171 69.7148 68.4205 69.7505 68.6066 69.8176L68.9456 68.8768ZM68.0091 68.7148V67.7148C67.5743 67.7148 67.1412 67.7892 66.7335 67.936L67.0726 68.8768L67.4116 69.8176C67.5977 69.7505 67.8011 69.7148 68.0091 69.7148V68.7148ZM67.0726 68.8768L66.7335 67.936C66.3259 68.0829 65.9473 68.3011 65.6223 68.5839L66.2788 69.3383L66.9352 70.0927C67.0645 69.9801 67.2254 69.8847 67.4116 69.8176L67.0726 68.8768ZM66.2788 69.3383L65.6227 68.5836L58.2737 74.9725L58.9298 75.7272L59.5859 76.4819L66.9348 70.093L66.2788 69.3383ZM58.9298 75.7272L58.2731 74.973C57.7909 75.3929 57.4308 75.932 57.2502 76.5424L58.2091 76.8261L59.168 77.1098C59.2334 76.8889 59.371 76.669 59.5865 76.4814L58.9298 75.7272ZM58.2091 76.8261L57.2501 76.5427L56.4379 79.2907L57.3969 79.5742L58.3559 79.8576L59.1681 77.1095L58.2091 76.8261ZM57.3969 79.5742L56.4377 79.2916C56.3612 79.5512 56.3641 79.8262 56.4455 80.0838L57.399 79.7824L58.3525 79.481C58.3909 79.6024 58.3923 79.7339 58.3562 79.8567L57.3969 79.5742ZM57.399 79.7824L56.4455 80.0838C56.5264 80.3397 56.6772 80.5555 56.8647 80.718L57.5196 79.9623L58.1744 79.2065C58.2469 79.2693 58.3146 79.3612 58.3525 79.481L57.399 79.7824ZM57.5196 79.9623L56.8647 80.718C57.0514 80.8798 57.2711 80.9864 57.4974 81.0398L57.7269 80.0665L57.9564 79.0932C58.0259 79.1096 58.1027 79.1444 58.1744 79.2065L57.5196 79.9623ZM57.7269 80.0665L57.4974 81.0398C57.7236 81.0931 57.9599 81.0942 58.1865 81.0431L57.9664 80.0676L57.7462 79.0922C57.8157 79.0765 57.8869 79.0768 57.9564 79.0932L57.7269 80.0665ZM57.9664 80.0676L58.1842 81.0436L61.3443 80.3383L61.1265 79.3623L60.9086 78.3864L57.7486 79.0916L57.9664 80.0676ZM61.1265 79.3623L61.3439 80.3384C61.9747 80.1979 62.5646 79.9096 63.0467 79.4904L62.3905 78.7358L61.7343 77.9812C61.5182 78.1691 61.2349 78.3137 60.909 78.3863L61.1265 79.3623ZM62.3905 78.7358L63.0466 79.4905L70.3955 73.1016L69.7394 72.3469L69.0834 71.5922L61.7344 77.9811L62.3905 78.7358ZM69.7394 72.3469L70.3952 73.1019C70.7207 72.8192 70.9876 72.4758 71.1729 72.0872L70.2703 71.6568L69.3676 71.2264C69.3068 71.354 69.213 71.4796 69.0837 71.5919L69.7394 72.3469ZM70.2703 71.6568L71.1729 72.0872C71.3585 71.6979 71.4567 71.2745 71.4567 70.8426H70.4567H69.4567C69.4567 70.9695 69.4281 71.0995 69.3676 71.2264L70.2703 71.6568ZM70.4567 70.8426H71.4567C71.4567 70.4107 71.3585 69.9873 71.1729 69.598L70.2703 70.0284L69.3676 70.4588C69.4281 70.5857 69.4567 70.7157 69.4567 70.8426H70.4567ZM70.2703 70.0284L71.1729 69.598C70.9876 69.2093 70.7207 68.866 70.3952 68.5833L69.7394 69.3383L69.0837 70.0933C69.213 70.2055 69.3068 70.3312 69.3676 70.4588L70.2703 70.0284ZM66.9388 69.9121L67.5949 70.6668C67.6839 70.5894 67.8312 70.5267 68.0091 70.5267V69.5267V68.5267C67.3841 68.5267 66.7614 68.7413 66.2827 69.1574L66.9388 69.9121ZM68.0091 69.5267V70.5267C68.187 70.5267 68.3343 70.5894 68.4233 70.6668L69.0794 69.9121L69.7355 69.1574C69.2568 68.7413 68.6341 68.5267 68.0091 68.5267V69.5267ZM69.0794 69.9121L68.4233 70.6668C68.5079 70.7403 68.5228 70.8076 68.5228 70.8426H69.5228H70.5228C70.5228 70.1796 70.2186 69.5774 69.7355 69.1574L69.0794 69.9121ZM69.5228 70.8426H68.5228C68.5228 70.8776 68.5079 70.9449 68.4233 71.0184L69.0794 71.7731L69.7355 72.5278C70.2186 72.1078 70.5228 71.5056 70.5228 70.8426H69.5228ZM69.0794 71.7731L68.4233 71.0184L67.6961 71.6506L68.3522 72.4053L69.0083 73.16L69.7355 72.5278L69.0794 71.7731ZM68.3522 72.4053L69.0083 71.6506L66.8676 69.7896L66.2115 70.5443L65.5554 71.299L67.6961 73.16L68.3522 72.4053ZM66.2115 70.5443L66.8676 71.299L67.5949 70.6668L66.9388 69.9121L66.2827 69.1574L65.5554 69.7896L66.2115 70.5443ZM65.5515 71.1181L64.8954 71.8728L67.0361 73.7338L67.6922 72.9791L68.3483 72.2244L66.2076 70.3634L65.5515 71.1181ZM67.6922 72.9791L67.0361 72.2244L61.0744 77.4073L61.7305 78.162L62.3866 78.9167L68.3482 73.7338L67.6922 72.9791ZM61.7305 78.162L61.0747 77.407C60.9768 77.4921 60.8413 77.5633 60.6774 77.5997L60.894 78.5759L61.1107 79.5522C61.5797 79.4481 62.0221 79.2333 62.3863 78.9169L61.7305 78.162ZM60.894 78.5759L60.6759 77.6L58.2794 78.1356L58.4976 79.1116L58.7157 80.0875L61.1122 79.5518L60.894 78.5759ZM58.4976 79.1116L59.4565 79.3952L60.0727 77.3118L59.1137 77.0282L58.1548 76.7446L57.5386 78.828L58.4976 79.1116ZM59.1137 77.0282L60.0737 77.3084C60.0965 77.23 60.1487 77.14 60.2452 77.0563L59.5898 76.301L58.9345 75.5457C58.5685 75.8632 58.2916 76.2757 58.1538 76.748L59.1137 77.0282ZM59.5898 76.301L60.2459 77.0557L66.2076 71.8728L65.5515 71.1181L64.8954 70.3634L58.9337 75.5463L59.5898 76.301Z" fill="#333333" fill-opacity="0.16" mask="url(#path-4-inside-1_56_143)"/>
</svg>
